<?xml version="1.0" standalone="no"?>
<!DOCTYPE svg PUBLIC "-//W3C//DTD SVG 20010904//EN"
 "http://www.w3.org/TR/2001/REC-SVG-20010904/DTD/svg10.dtd">
<svg version="1.0" xmlns="http://www.w3.org/2000/svg"
 width="800.000000pt" height="800.000000pt" viewBox="0 0 800.000000 800.000000"
 preserveAspectRatio="xMidYMid meet">
<metadata>
Created by potrace 1.14, written by Peter Selinger 2001-2017
</metadata>
<g transform="translate(0.000000,800.000000) scale(0.100000,-0.100000)"
fill="#000000" stroke="none">
<path d="M2643 7946 c-57 -56 -74 -89 -98 -186 -9 -36 -27 -78 -39 -95 -58
-79 -66 -147 -32 -254 33 -101 36 -201 7 -201 -10 0 -21 7 -25 15 -4 11 -22
15 -70 15 -58 0 -67 -3 -85 -26 -12 -15 -21 -32 -21 -39 0 -40 -98 -76 -101
-37 -7 94 -15 111 -62 132 -23 10 -69 20 -102 22 l-60 3 2 -38 c5 -72 56 -121
151 -141 39 -9 41 -21 5 -40 -39 -20 -111 -102 -140 -159 l-25 -48 26 -62 c31
-72 37 -147 16 -168 -9 -9 -37 -14 -72 -14 -53 0 -61 -3 -94 -37 -30 -29 -38
-45 -42 -86 l-4 -51 -33 16 c-31 15 -35 14 -99 -17 -36 -18 -70 -38 -75 -44
-32 -40 -41 -182 -26 -388 l7 -98 -75 0 c-60 0 -78 3 -85 16 -6 11 -28 18 -62
22 -47 4 -55 2 -71 -19 -22 -28 -23 -42 -8 -126 9 -52 17 -69 46 -96 42 -39
83 -108 123 -207 33 -80 65 -141 142 -270 38 -63 73 -122 77 -130 5 -8 29 -58
54 -110 36 -77 55 -104 101 -144 31 -27 73 -57 93 -68 108 -57 141 -81 174
-125 59 -79 122 -172 153 -227 16 -28 41 -69 56 -92 15 -22 30 -52 34 -67 5
-22 34 -72 63 -112 5 -6 23 -33 42 -60 69 -101 174 -195 339 -303 35 -23 65
-42 67 -42 3 0 28 -11 57 -24 29 -13 82 -34 117 -46 35 -12 75 -29 90 -36 14
-8 33 -14 41 -14 8 0 47 -11 85 -24 39 -14 98 -30 131 -36 89 -18 90 -19 55
-77 -17 -28 -31 -55 -31 -60 0 -5 -8 -17 -19 -27 -17 -15 -18 -34 -16 -259 1
-133 6 -274 10 -313 7 -67 6 -76 -22 -135 -17 -35 -33 -74 -37 -86 -8 -26 -30
-45 -54 -48 -34 -3 -49 -17 -62 -56 -7 -21 -17 -39 -21 -39 -9 0 -28 -63 -35
-117 -2 -20 -13 -52 -23 -72 -28 -53 -44 -232 -26 -280 49 -128 59 -192 57
-370 -1 -166 -7 -204 -38 -279 -8 -18 -14 -40 -14 -49 0 -9 -24 -39 -53 -67
-52 -49 -55 -54 -80 -156 -14 -58 -40 -163 -58 -233 -26 -105 -30 -132 -20
-153 6 -14 11 -36 11 -49 0 -27 -27 -140 -40 -170 -5 -11 -13 -47 -19 -80 -5
-33 -14 -85 -20 -115 -27 -139 -33 -218 -21 -254 l12 -36 520 0 521 0 23 27
c13 16 24 33 24 40 0 24 27 19 80 -16 30 -20 57 -39 58 -43 2 -5 221 -8 487
-8 l483 0 12 31 c11 26 10 47 -4 128 -9 53 -28 120 -42 148 -13 29 -29 74 -34
100 -5 27 -18 68 -29 93 -22 49 -85 133 -93 124 -3 -2 -13 11 -22 30 -9 19
-21 38 -26 41 -48 30 -75 445 -58 899 4 112 11 183 18 190 8 8 19 3 39 -20 16
-17 30 -36 32 -41 2 -5 32 -21 67 -37 49 -22 74 -27 110 -23 45 4 184 50 208
69 23 18 100 55 128 62 16 4 65 25 110 47 44 21 88 39 97 39 9 0 45 16 79 35
34 19 66 35 71 35 9 0 63 24 266 121 45 21 87 39 93 39 6 0 31 9 56 20 24 11
64 29 88 40 25 11 49 20 53 20 4 0 24 10 43 22 19 12 49 28 65 34 17 7 57 23
90 37 78 32 98 39 110 43 25 6 93 38 117 55 14 11 33 19 41 19 9 0 25 13 37
30 20 29 20 33 10 247 -6 120 -12 285 -14 367 -2 143 -1 149 20 158 18 9 21
19 23 81 1 39 6 78 11 86 4 9 15 49 23 89 9 40 23 84 32 99 13 19 15 37 11 77
-4 28 -9 98 -12 155 -6 97 -8 106 -35 135 -35 38 -36 54 -5 84 14 12 35 44 48
70 41 83 26 292 -27 377 -7 11 -15 34 -19 51 -6 27 -2 34 33 62 22 18 49 53
61 78 21 49 26 94 11 94 -5 0 -12 14 -16 30 -4 16 -11 30 -16 30 -5 0 -9 6 -9
14 0 7 -14 27 -31 44 -17 16 -31 36 -32 43 -2 8 -6 19 -10 26 -4 6 -11 105
-17 220 -11 226 -16 274 -37 313 -7 14 -13 32 -13 41 0 9 -9 28 -20 42 -11 14
-20 30 -20 36 0 6 -13 17 -28 25 -16 8 -53 40 -83 71 -113 118 -155 158 -213
203 -34 25 -75 61 -92 80 -35 38 -79 51 -168 52 -52 0 -66 -5 -130 -45 -40
-25 -75 -45 -79 -45 -3 0 -48 -23 -99 -51 -51 -28 -102 -52 -112 -55 -11 -2
-22 -7 -25 -12 -8 -12 -130 -81 -231 -131 -46 -24 -103 -55 -126 -71 -23 -15
-71 -41 -106 -56 -34 -16 -65 -31 -68 -34 -6 -6 -55 -33 -150 -82 -101 -52
-113 -49 -122 27 -4 33 -4 105 0 160 10 150 7 176 -22 202 -24 21 -25 26 -35
220 -5 109 -10 246 -11 304 0 59 -4 120 -9 135 -4 16 -7 41 -7 57 1 15 -1 27
-5 27 -5 0 -20 110 -20 155 0 6 -9 26 -19 45 -11 19 -24 60 -30 90 -8 42 -22
68 -58 112 -26 31 -62 64 -79 73 -18 9 -33 20 -33 25 0 4 -26 26 -57 48 -32
21 -84 56 -115 78 -48 33 -61 49 -83 99 -14 33 -31 83 -39 110 -44 151 -55
181 -84 215 -33 40 -95 62 -217 75 -33 4 -71 9 -85 11 -104 18 -117 17 -135
-9 -15 -24 -16 -38 -4 -149 18 -181 18 -182 -8 -186 -17 -2 -29 7 -50 40 -43
68 -51 81 -70 118 -27 51 -70 117 -83 125 -13 8 -90 170 -90 190 0 8 -4 15 -9
15 -5 0 -11 9 -14 20 -3 10 -21 27 -41 37 -20 9 -36 20 -36 24 0 4 -17 23 -37
43 l-37 36 -246 -1 -245 -1 -52 -52z"/>
<path d="M5031 14 c0 -11 3 -14 6 -6 3 7 2 16 -1 19 -3 4 -6 -2 -5 -13z"/>
</g>
</svg>
